<?xml version="1.0" encoding="UTF-8"?>
<svg xmlns="http://www.w3.org/2000/svg" viewBox="0 0 1280 720" role="img" aria-label="geo-m-world-regions · 知识结构主图">
<defs>
  <style>
    @import url("https://fonts.googleapis.com/css2?family=Noto+Sans+SC:wght@400;600;700&amp;display=swap");
    text { font-family: "Noto Sans SC", system-ui, -apple-system, sans-serif; }
  </style>
  <linearGradient id="bg" x1="0" y1="0" x2="0" y2="1">
    <stop offset="0%" stop-color="#fafbff"/>
    <stop offset="100%" stop-color="#eef2ff"/>
  </linearGradient>
  <filter id="softShadow" x="-20%" y="-20%" width="140%" height="140%">
    <feGaussianBlur in="SourceAlpha" stdDeviation="4"/>
    <feOffset dx="0" dy="3" result="offsetblur"/>
    <feComponentTransfer><feFuncA type="linear" slope="0.22"/></feComponentTransfer>
    <feMerge><feMergeNode/><feMergeNode in="SourceGraphic"/></feMerge>
  </filter>
</defs>
<rect width="1280" height="720" fill="url(#bg)"/>
<text x="640" y="240" text-anchor="middle" font-family="'Noto Sans SC', 'PingFang SC', 'Microsoft YaHei', system-ui, sans-serif" font-size="58" font-weight="700" fill="#1e293b">geo-m-world-regions</text>
<line x1="560" y1="306" x2="720" y2="306" stroke="#6366f1" stroke-width="3" stroke-linecap="round"/>
<line x1="640" y1="330" x2="640.0" y2="150.0" stroke="#cbd5e1" stroke-width="2" stroke-dasharray="6 6"/>
<line x1="640" y1="330" x2="890.0" y2="400.0" stroke="#cbd5e1" stroke-width="2" stroke-dasharray="6 6"/>
<line x1="640" y1="330" x2="640.0" y2="650.0" stroke="#cbd5e1" stroke-width="2" stroke-dasharray="6 6"/>
<line x1="640" y1="330" x2="390.0" y2="400.00000000000006" stroke="#cbd5e1" stroke-width="2" stroke-dasharray="6 6"/>
<g filter="url(#softShadow)"><rect x="540.0" y="111.0" width="200" height="78" rx="16" ry="16" fill="white" stroke="#6366f1" stroke-width="3"/><rect x="540.0" y="111.0" width="6" height="78" rx="3" ry="3" fill="#6366f1"/><text x="643.0" y="158.0" text-anchor="middle" font-family="'Noto Sans SC', 'PingFang SC', 'Microsoft YaHei', system-ui, sans-serif" font-size="22" font-weight="600" fill="#1e293b">核心概念</text></g>
<g filter="url(#softShadow)"><rect x="790.0" y="361.0" width="200" height="78" rx="16" ry="16" fill="white" stroke="#06b6d4" stroke-width="3"/><rect x="790.0" y="361.0" width="6" height="78" rx="3" ry="3" fill="#06b6d4"/><text x="893.0" y="408.0" text-anchor="middle" font-family="'Noto Sans SC', 'PingFang SC', 'Microsoft YaHei', system-ui, sans-serif" font-size="22" font-weight="600" fill="#1e293b">关键方法</text></g>
<g filter="url(#softShadow)"><rect x="540.0" y="611.0" width="200" height="78" rx="16" ry="16" fill="white" stroke="#10b981" stroke-width="3"/><rect x="540.0" y="611.0" width="6" height="78" rx="3" ry="3" fill="#10b981"/><text x="643.0" y="658.0" text-anchor="middle" font-family="'Noto Sans SC', 'PingFang SC', 'Microsoft YaHei', system-ui, sans-serif" font-size="22" font-weight="600" fill="#1e293b">典型应用</text></g>
<g filter="url(#softShadow)"><rect x="290.0" y="361.00000000000006" width="200" height="78" rx="16" ry="16" fill="white" stroke="#f59e0b" stroke-width="3"/><rect x="290.0" y="361.00000000000006" width="6" height="78" rx="3" ry="3" fill="#f59e0b"/><text x="393.0" y="408.00000000000006" text-anchor="middle" font-family="'Noto Sans SC', 'PingFang SC', 'Microsoft YaHei', system-ui, sans-serif" font-size="22" font-weight="600" fill="#1e293b">拓展迁移</text></g>
<text x="1256" y="700" text-anchor="end" font-size="12" fill="#94a3b8">TeachAny · knowledge-structure · geo-m-world-regions</text>
</svg>