<?xml version="1.0" encoding="UTF-8"?>
<svg xmlns="http://www.w3.org/2000/svg" viewBox="0 0 1280 720" role="img" aria-label="盐的性质 · 知识结构主图">
<defs>
  <linearGradient id="bg" x1="0" y1="0" x2="0" y2="1">
    <stop offset="0%" stop-color="#fafbff"/>
    <stop offset="100%" stop-color="#eef2ff"/>
  </linearGradient>
  <filter id="softShadow" x="-20%" y="-20%" width="140%" height="140%">
    <feGaussianBlur in="SourceAlpha" stdDeviation="4"/>
    <feOffset dx="0" dy="3" result="offsetblur"/>
    <feComponentTransfer><feFuncA type="linear" slope="0.22"/></feComponentTransfer>
    <feMerge><feMergeNode/><feMergeNode in="SourceGraphic"/></feMerge>
  </filter>
</defs>
<rect width="1280" height="720" fill="url(#bg)"/>
<text x="640" y="240" text-anchor="middle" font-family="'Noto Sans SC', 'PingFang SC', 'Microsoft YaHei', system-ui, sans-serif" font-size="58" font-weight="700" fill="#1e293b">盐的性质</text>
<text x="640" y="284" text-anchor="middle" font-family="'Noto Sans SC', 'PingFang SC', 'Microsoft YaHei', system-ui, sans-serif" font-size="22" font-weight="400" fill="#64748b">初中化学·物质性质</text>
<line x1="560" y1="306" x2="720" y2="306" stroke="#6366f1" stroke-width="3" stroke-linecap="round"/>
<line x1="640" y1="330" x2="640.0" y2="150.0" stroke="#cbd5e1" stroke-width="2" stroke-dasharray="6 6"/>
<line x1="640" y1="330" x2="856.5063509461097" y2="275.0" stroke="#cbd5e1" stroke-width="2" stroke-dasharray="6 6"/>
<line x1="640" y1="330" x2="856.5063509461097" y2="525.0" stroke="#cbd5e1" stroke-width="2" stroke-dasharray="6 6"/>
<line x1="640" y1="330" x2="640.0" y2="650.0" stroke="#cbd5e1" stroke-width="2" stroke-dasharray="6 6"/>
<line x1="640" y1="330" x2="423.4936490538904" y2="525.0000000000001" stroke="#cbd5e1" stroke-width="2" stroke-dasharray="6 6"/>
<line x1="640" y1="330" x2="423.49364905389035" y2="275.0" stroke="#cbd5e1" stroke-width="2" stroke-dasharray="6 6"/>
<g filter="url(#softShadow)"><rect x="540.0" y="111.0" width="200" height="78" rx="16" ry="16" fill="white" stroke="#6366f1" stroke-width="3"/><rect x="540.0" y="111.0" width="6" height="78" rx="3" ry="3" fill="#6366f1"/><text x="643.0" y="158.0" text-anchor="middle" font-family="'Noto Sans SC', 'PingFang SC', 'Microsoft YaHei', system-ui, sans-serif" font-size="22" font-weight="600" fill="#1e293b">盐+金属</text></g>
<g filter="url(#softShadow)"><rect x="756.5063509461097" y="236.0" width="200" height="78" rx="16" ry="16" fill="white" stroke="#06b6d4" stroke-width="3"/><rect x="756.5063509461097" y="236.0" width="6" height="78" rx="3" ry="3" fill="#06b6d4"/><text x="859.5063509461097" y="283.0" text-anchor="middle" font-family="'Noto Sans SC', 'PingFang SC', 'Microsoft YaHei', system-ui, sans-serif" font-size="22" font-weight="600" fill="#1e293b">盐+酸</text></g>
<g filter="url(#softShadow)"><rect x="756.5063509461097" y="486.0" width="200" height="78" rx="16" ry="16" fill="white" stroke="#10b981" stroke-width="3"/><rect x="756.5063509461097" y="486.0" width="6" height="78" rx="3" ry="3" fill="#10b981"/><text x="859.5063509461097" y="533.0" text-anchor="middle" font-family="'Noto Sans SC', 'PingFang SC', 'Microsoft YaHei', system-ui, sans-serif" font-size="22" font-weight="600" fill="#1e293b">盐+碱</text></g>
<g filter="url(#softShadow)"><rect x="540.0" y="611.0" width="200" height="78" rx="16" ry="16" fill="white" stroke="#f59e0b" stroke-width="3"/><rect x="540.0" y="611.0" width="6" height="78" rx="3" ry="3" fill="#f59e0b"/><text x="643.0" y="658.0" text-anchor="middle" font-family="'Noto Sans SC', 'PingFang SC', 'Microsoft YaHei', system-ui, sans-serif" font-size="22" font-weight="600" fill="#1e293b">盐+盐</text></g>
<g filter="url(#softShadow)"><rect x="323.4936490538904" y="486.0000000000001" width="200" height="78" rx="16" ry="16" fill="white" stroke="#ec4899" stroke-width="3"/><rect x="323.4936490538904" y="486.0000000000001" width="6" height="78" rx="3" ry="3" fill="#ec4899"/><text x="426.4936490538904" y="533.0000000000001" text-anchor="middle" font-family="'Noto Sans SC', 'PingFang SC', 'Microsoft YaHei', system-ui, sans-serif" font-size="22" font-weight="600" fill="#1e293b">复分解条件</text></g>
<g filter="url(#softShadow)"><rect x="323.49364905389035" y="236.0" width="200" height="78" rx="16" ry="16" fill="white" stroke="#8b5cf6" stroke-width="3"/><rect x="323.49364905389035" y="236.0" width="6" height="78" rx="3" ry="3" fill="#8b5cf6"/><text x="426.49364905389035" y="283.0" text-anchor="middle" font-family="'Noto Sans SC', 'PingFang SC', 'Microsoft YaHei', system-ui, sans-serif" font-size="22" font-weight="600" fill="#1e293b">溶解性表</text></g>
<text x="1256" y="700" text-anchor="end" font-family="system-ui, sans-serif" font-size="12" fill="#94a3b8">TeachAny · knowledge-structure · chem-m-salt-reactions</text>
</svg>